<svg xmlns="http://www.w3.org/2000/svg" width="18.903" height="22.494" viewBox="0 0 18.903 22.494">
  <path id="Icon_awesome-apple" data-name="Icon awesome-apple" d="M16.085,14.137A4.688,4.688,0,0,1,18.6,9.878a5.4,5.4,0,0,0-4.254-2.24C12.56,7.5,10.611,8.678,9.9,8.678c-.753,0-2.481-.989-3.837-.989-2.8.045-5.78,2.235-5.78,6.689A12.517,12.517,0,0,0,1,18.456c.643,1.843,2.963,6.363,5.384,6.287,1.266-.03,2.159-.9,3.807-.9,1.6,0,2.426.9,3.837.9,2.441-.035,4.54-4.143,5.153-5.991a4.978,4.978,0,0,1-3.1-4.615ZM13.243,5.891A4.73,4.73,0,0,0,14.448,2.25,5.325,5.325,0,0,0,11.038,4,4.8,4.8,0,0,0,9.753,7.613a4.218,4.218,0,0,0,3.49-1.723Z" transform="translate(-0.281 -2.25)"/>
</svg>
